<svg xmlns="http://www.w3.org/2000/svg" width="15" height="12" viewBox="0 0 15 12">
  <path fill="#D0D0D0" fill-rule="evenodd" stroke="#D0D0D0" d="M19,2.95286195 C19,3.16329966 18.916129,3.37373737 18.7651613,3.52525253 L11.5522581,10.7643098 C11.4012903,10.9158249 11.1916129,11 10.9819355,11 C10.7722581,11 10.5625806,10.9158249 10.4116129,10.7643098 L6.23483871,6.57239057 C6.08387097,6.42087542 6,6.21043771 6,6 C6,5.78956229 6.08387097,5.57912458 6.23483871,5.42760943 L7.37548387,4.28282828 C7.52645161,4.13131313 7.73612903,4.04713805 7.94580645,4.04713805 C8.15548387,4.04713805 8.36516129,4.13131313 8.51612903,4.28282828 L10.9819355,6.76599327 L16.483871,1.23569024 C16.6348387,1.08417508 16.8445161,1 17.0541935,1 C17.263871,1 17.4735484,1.08417508 17.6245161,1.23569024 L18.7651613,2.38047138 C18.916129,2.53198653 19,2.74242424 19,2.95286195 Z" transform="translate(-5)"/>
</svg>
