<?xml version="1.0" standalone="no"?>
<!DOCTYPE svg PUBLIC "-//W3C//DTD SVG 20010904//EN"
 "http://www.w3.org/TR/2001/REC-SVG-20010904/DTD/svg10.dtd">
<svg version="1.0" xmlns="http://www.w3.org/2000/svg"
 width="300.000000pt" height="300.000000pt" viewBox="0 0 300.000000 300.000000"
 preserveAspectRatio="xMidYMid meet">
<metadata>
Created by potrace 1.11, written by Peter Selinger 2001-2013
</metadata>
<g transform="translate(0.000000,300.000000) scale(0.100000,-0.100000)"
fill="#000000" stroke="none">
<path d="M1325 2954 c-166 -24 -345 -79 -476 -144 -192 -97 -396 -268 -525
-440 -119 -160 -216 -378 -261 -590 -26 -120 -26 -430 0 -550 28 -132 82 -284
143 -399 165 -318 467 -580 805 -699 174 -61 273 -77 489 -77 216 0 315 16
489 77 261 92 518 282 687 508 119 160 216 378 261 590 26 120 26 430 0 550
-28 132 -82 284 -143 399 -163 314 -462 575 -794 696 -159 57 -270 76 -465 80
-99 2 -193 1 -210 -1z m-120 -506 c-13 -60 -33 -84 -113 -136 -44 -28 -85 -58
-92 -67 -21 -26 -28 -17 -19 26 21 93 62 143 149 183 75 34 83 33 75 -6z m662
6 c90 -39 130 -88 152 -183 9 -43 2 -52 -19 -26 -7 9 -48 39 -92 67 -80 52
-100 76 -113 136 -8 39 -3 40 72 6z m-930 -169 c-6 -87 -22 -117 -98 -190
l-51 -50 5 65 c10 102 24 138 79 197 28 29 55 53 61 53 6 0 8 -28 4 -75z
m1191 22 c55 -59 69 -95 79 -197 l5 -65 -51 50 c-76 73 -92 103 -98 190 -4 47
-2 75 4 75 6 0 33 -24 61 -53z m-780 -9 c-14 -18 -47 -44 -74 -58 -42 -22 -59
-25 -137 -23 -49 1 -92 5 -95 7 -7 8 37 43 86 67 37 18 122 33 216 38 l29 1
-25 -32z m477 10 c38 -9 135 -66 135 -79 0 -12 -137 -17 -181 -8 -55 13 -103
42 -130 80 l-21 30 78 -6 c44 -4 97 -11 119 -17z m-700 -126 l40 -7 -67 -42
c-36 -23 -86 -47 -110 -52 -61 -14 -128 -20 -128 -12 0 16 99 102 126 111 36
10 86 11 139 2z m885 -2 c30 -9 130 -94 130 -111 0 -8 -67 -2 -128 12 -24 5
-74 29 -110 52 l-67 42 35 6 c56 10 103 10 140 -1z m-1260 -133 c0 -52 -33
-179 -59 -225 -9 -15 -43 76 -55 146 -6 38 15 107 52 171 l26 45 18 -40 c10
-22 18 -64 18 -97z m1588 43 c31 -68 32 -126 2 -215 -26 -77 -26 -76 -64 37
-30 89 -33 169 -9 229 15 39 17 41 31 23 8 -11 26 -44 40 -74z m-1337 -69
c-17 -31 -81 -76 -156 -110 -38 -17 -77 -39 -87 -48 -21 -19 -22 -9 -7 38 30
88 104 139 202 139 54 0 57 -1 48 -19z m1170 -16 c43 -30 72 -75 85 -130 7
-29 6 -29 -12 -13 -11 10 -51 32 -89 49 -76 34 -139 79 -156 111 -11 20 -9 20
60 16 58 -3 77 -9 112 -33z m-1543 -242 c33 -88 50 -191 35 -217 -7 -13 -15
-8 -45 31 -72 95 -83 122 -83 199 0 54 6 83 25 124 l25 54 6 -55 c4 -30 20
-91 37 -136z m622 149 c0 -56 11 -62 117 -62 l93 0 0 35 c0 34 1 35 39 35 37
0 40 -2 43 -32 l3 -33 103 -3 102 -3 0 51 0 50 46 0 47 0 -6 -202 c-6 -225
-16 -272 -69 -326 -66 -69 -158 -65 -221 8 l-34 41 -17 -27 c-10 -14 -16 -27
-14 -29 2 -1 28 -10 58 -20 85 -27 126 -52 157 -92 25 -32 28 -45 28 -112 0
-63 -4 -81 -23 -108 -52 -74 -193 -98 -286 -48 l-47 25 -11 -25 c-9 -21 -18
-25 -55 -25 l-44 0 3 148 3 147 38 3 c24 2 38 -1 41 -10 45 -153 122 -223 218
-198 38 11 68 42 68 70 0 29 -43 57 -132 89 -102 35 -139 53 -158 76 -8 9 -31
25 -51 36 -101 51 -120 106 -126 377 l-6 202 47 0 46 0 0 -38z m1214 -132 c1
-82 -9 -106 -82 -203 -30 -39 -38 -44 -45 -31 -15 27 2 129 39 230 18 52 34
114 34 137 l1 42 26 -50 c22 -41 27 -64 27 -125z m-1531 68 c-19 -35 -42 -60
-71 -77 -24 -14 -70 -43 -102 -63 l-59 -37 6 32 c17 88 72 146 170 177 86 28
88 27 56 -32z m1186 33 c101 -31 157 -88 174 -177 l6 -32 -47 30 c-26 16 -71
44 -101 61 -40 24 -62 45 -84 85 -16 28 -24 52 -19 52 6 0 38 -9 71 -19z
m-1219 -173 c-1 -44 -40 -109 -103 -172 -35 -34 -73 -76 -86 -92 l-22 -29 4
67 c6 94 39 146 125 203 37 24 70 44 75 45 4 0 7 -10 7 -22z m1280 -22 c88
-57 121 -109 127 -204 l4 -67 -22 29 c-13 16 -51 58 -86 92 -63 63 -102 128
-103 172 0 12 3 22 6 22 3 0 36 -20 74 -44z m-1620 -111 c65 -86 87 -134 96
-210 l7 -59 -63 49 c-81 62 -99 102 -100 214 0 46 2 82 4 80 2 -2 27 -35 56
-74z m1922 -129 c-14 -29 -39 -58 -82 -91 l-63 -49 7 59 c9 75 31 123 97 212
l54 72 3 -80 c2 -61 -2 -89 -16 -123z m-1646 22 c-3 -13 -10 -62 -16 -110 -7
-54 -22 -114 -40 -155 l-29 -68 -17 40 c-41 98 -27 188 43 266 49 53 66 61 59
27z m1387 -27 c70 -78 84 -168 43 -266 l-17 -40 -29 68 c-18 41 -33 101 -40
155 -6 48 -13 97 -16 110 -7 34 10 26 59 -27z m-1647 -147 c64 -41 106 -89
144 -164 35 -69 31 -71 -53 -40 -56 21 -104 64 -130 115 -21 42 -38 137 -23
128 6 -4 34 -21 62 -39z m1912 -6 c-18 -101 -70 -166 -155 -198 -84 -31 -88
-29 -53 40 39 78 80 123 154 171 34 21 62 39 62 39 1 0 -3 -23 -8 -52z m-1558
-303 c5 -49 7 -91 4 -94 -9 -10 -75 65 -99 113 -37 75 -30 177 17 233 16 20
66 -139 78 -252z m1241 211 c27 -59 24 -131 -6 -192 -24 -48 -90 -123 -99
-113 -21 21 55 365 78 352 4 -3 17 -24 27 -47z m-1116 -198 c14 -21 30 -57 35
-80 6 -24 17 -70 25 -103 8 -32 12 -61 10 -63 -6 -7 -68 34 -97 65 -36 38 -44
63 -53 167 l-7 88 31 -18 c17 -10 42 -35 56 -56z m970 -15 c-9 -103 -17 -128
-53 -166 -29 -30 -91 -72 -97 -65 -4 3 1 25 31 151 16 66 50 121 91 148 15 11
30 19 31 19 2 0 1 -39 -3 -87z m-1290 36 c17 -5 66 -45 109 -88 78 -79 79 -80
53 -86 -71 -18 -158 23 -218 101 -80 106 -78 96 -23 89 27 -4 63 -11 79 -16z
m1648 8 c-35 -55 -114 -142 -143 -157 -46 -23 -103 -34 -137 -25 -26 6 -25 7
48 81 85 87 95 93 158 104 72 12 83 12 74 -3z m-1224 -141 c7 -8 43 -33 81
-55 53 -32 77 -55 109 -102 41 -61 52 -95 29 -87 -7 3 -38 13 -68 23 -67 21
-113 63 -144 130 -39 84 -43 134 -7 91z m695 -42 c-21 -63 -68 -137 -96 -152
-20 -11 -136 -52 -145 -52 -12 0 3 37 38 88 30 46 56 71 102 98 34 21 73 46
86 56 13 10 26 17 28 14 2 -2 -4 -25 -13 -52z m-851 -69 c27 -16 65 -40 84
-51 30 -19 33 -23 17 -27 -96 -28 -183 -10 -263 53 -28 22 -51 45 -51 51 0 7
28 10 83 8 70 -3 89 -8 130 -34z m1207 25 c0 -5 -23 -28 -51 -50 -63 -50 -140
-74 -206 -64 -45 6 -92 23 -67 24 7 0 35 16 64 36 29 20 66 42 84 50 36 15
176 19 176 4z m-907 -167 c26 -12 47 -26 47 -31 0 -14 -147 -35 -195 -28 -41
7 -135 57 -135 73 0 5 53 8 118 8 99 0 124 -3 165 -22z m677 14 c0 -16 -94
-66 -135 -73 -46 -6 -195 14 -195 27 0 11 34 29 85 45 43 14 245 15 245 1z
m-551 -104 c-57 -82 -107 -104 -143 -64 -17 18 -16 19 14 26 19 4 49 25 73 51
30 31 49 44 69 44 l27 0 -40 -57z m198 13 c24 -26 54 -47 73 -51 30 -7 31 -8
14 -26 -36 -40 -86 -18 -143 64 l-40 57 27 0 c20 0 39 -13 69 -44z"/>
<path d="M1200 1732 c0 -127 4 -193 14 -227 15 -48 59 -105 82 -105 6 0 33
-17 58 -39 32 -26 78 -49 144 -71 113 -39 147 -60 156 -96 9 -36 -10 -89 -39
-108 -34 -22 -97 -30 -138 -17 -50 17 -111 82 -138 146 -12 30 -26 52 -31 49
-4 -3 -8 -52 -8 -110 0 -77 3 -104 13 -104 7 0 18 9 25 20 16 26 46 25 85 -2
37 -26 128 -36 180 -19 20 7 50 28 67 47 25 29 30 43 30 85 0 102 -45 147
-190 190 -41 12 -79 24 -83 26 -4 3 6 20 22 38 16 19 38 59 47 90 l18 55 18
-59 c35 -115 126 -153 206 -86 51 43 62 96 62 297 0 112 -4 178 -10 178 -5 0
-10 -15 -10 -34 0 -52 -14 -57 -141 -54 l-114 3 -5 34 c-7 49 -28 51 -32 4
l-3 -38 -111 -3 c-125 -3 -144 5 -144 59 0 19 -5 29 -15 29 -13 0 -15 -26 -15
-178z m171 68 c72 0 120 4 124 10 5 8 11 7 20 0 9 -8 58 -11 145 -8 l130 3 0
-32 0 -32 -36 15 c-29 12 -78 14 -262 12 -125 -2 -235 -7 -244 -12 -16 -7 -18
-3 -18 30 0 30 3 35 12 26 8 -8 51 -12 129 -12z m129 -121 c0 -75 -18 -133
-51 -165 -23 -22 -40 -28 -86 -31 -103 -7 -147 41 -141 153 6 92 9 94 154 94
l124 0 0 -51z m264 35 c12 -11 16 -35 16 -84 0 -93 -22 -121 -103 -128 -67 -5
-102 12 -122 61 -15 39 -29 143 -20 157 4 6 50 10 110 10 81 0 107 -3 119 -16z
m-98 -234 c25 0 54 5 66 11 34 18 35 -1 0 -32 -42 -38 -89 -39 -131 -3 -38 31
-40 47 -5 34 14 -6 46 -10 70 -10z m-314 -20 c26 0 58 4 72 10 37 14 33 -4 -9
-37 -19 -15 -35 -31 -35 -34 0 -4 46 -21 103 -39 119 -38 162 -61 182 -100 24
-46 18 -51 -17 -16 -23 23 -59 41 -118 61 -90 29 -170 69 -170 86 0 5 -12 15
-27 21 -30 13 -83 57 -83 69 0 4 12 1 28 -7 15 -7 48 -14 74 -14z m3 -316 c14
-22 15 -28 4 -35 -24 -15 -29 -10 -29 26 0 19 2 35 4 35 2 0 11 -12 21 -26z"/>
<path d="M1257 1693 c-11 -10 -8 -97 3 -130 25 -71 155 -70 188 2 7 14 12 50
12 80 l0 55 -98 0 c-54 0 -102 -3 -105 -7z"/>
<path d="M1570 1656 c0 -55 17 -104 40 -116 33 -17 98 -12 120 10 16 16 20 33
20 85 l0 65 -90 0 -90 0 0 -44z"/>
</g>
</svg>
