<svg id="Layer_1" data-name="Layer 1" xmlns="http://www.w3.org/2000/svg" viewBox="0 0 567.23 130.88"><defs><style>.cls-1{fill:#fff;}.cls-2{fill:#e04444;}</style></defs><title>EBS LOGO</title><circle class="cls-1" cx="65.73" cy="65.44" r="57.5"/><path class="cls-2" d="M74.88,56.46H68.37v.27c0,7.59,2.14,7.59,4.13,7.59,3.85,0,4.2-1,4.2-5a6.1,6.1,0,0,0-.32-2.64S76.09,56.46,74.88,56.46Z"/><path class="cls-2" d="M59,65.17c3.33,0,4.94-2,4.94-6V56.46H56.2c-1.84,0-1.92,0-1.92,3.12C54.28,64.05,55.16,65.17,59,65.17Z"/><path class="cls-2" d="M74.57,79.88c0-7.91-8.15-7.74-12.8-9.79,2.31-1.46,3.88-5.35,4.29-8.46h.07c.38,3.46,2,8.46,6.46,8.46,3.79,0,6.49-3.43,6.49-10.67V47.13H78c0,3.8-.31,4.15-2.38,4.15H67.34c-1,0-1.22-.69-1.22-3.46H65c0,2.77-.16,3.46-1.21,3.46H56.42c-2.26,0-3.29-.69-3.29-4.15H51.8V59.48c0,7.39,2.47,10.55,6,11.21,3.56,5.62,14.72,4,14.72,9.74,0,3.4-2.74,4.93-6,4.93-4.78,0-8.15-5.08-9.08-9.22h-.81v10h.92c.27-.69,1-2.16,2.21-2.16s2.77,2.57,6.74,2.57C70.72,86.56,74.57,84.41,74.57,79.88Zm-1.75-11c-2.35,0-3.7-1.64-4.5-3.44a6.33,6.33,0,0,0,4.16,1.22c2.45,0,4-.54,5-1.44C76.56,67.58,75,68.87,72.82,68.87Zm-.34-3.21c-3.6,0-5.49-1.61-5.49-8.93V55.42h7.89c2.79,0,3.15.4,3.15,4C78,63.68,77.47,65.66,72.48,65.66ZM53.18,50.8c.35,1.07,1.54,1.51,3.35,1.51H64a1.9,1.9,0,0,0,1.69-1,2,2,0,0,0,1.7,1H75.7c1.37,0,2.34-.3,2.69-.94v3.72A4.21,4.21,0,0,0,75,53.7H56.3c-1.62,0-2.77.52-3.12,1.36Zm3,4.62h9.07v3.8c0,3.91-1.55,7.34-6.31,7.34-5,0-6-2.11-6-6.83C53,55.4,53.86,55.42,56.2,55.42ZM66.26,74.18c-3-.91-6-1.86-7.51-4.17l-.24-.4L58,69.53A5.42,5.42,0,0,1,54,66c1.09,1,2.71,1.47,5.14,1.47a7.48,7.48,0,0,0,4.58-1.36A7.21,7.21,0,0,1,61.29,69l-1.68,1.07,1.82.82a30,30,0,0,0,3.85,1.27c4.26,1.2,8.28,2.32,8.28,7.56v0C73.21,76.37,69.71,75.25,66.26,74.18ZM59.86,83a2.76,2.76,0,0,0-2,.89c0-.58,0-1.27,0-2.14,0,0,0-1-.05-1.83A15,15,0,0,0,59.9,83Z"/><path class="cls-2" d="M65.44,0a65.44,65.44,0,1,0,65.44,65.44A65.44,65.44,0,0,0,65.44,0Zm39.74,52.22a16.24,16.24,0,0,0,1.13-5.88l0-1.12.57,1A13.61,13.61,0,0,1,108.73,55c-.35,3-2.86,6.07-4.52,8.12-.27.33-.51.62-.71.88l-.42.52-.11-.65c-.78-4.67.92-8.63,1.84-10.75C105,52.77,105.09,52.47,105.18,52.22Zm-4.9-16.35.06-.11c.06-.13.11-.26.17-.38l.25-.57.28.56c.23.45.49.93.74,1.42l0,.08c1.11,2.1,2.36,4.48,2.42,6.22.07,2.15-1,5.51-1.94,8.2l-.27.76-.29-.75c-.15-.41-.31-.83-.49-1.27A31.65,31.65,0,0,1,99,42.25,11,11,0,0,1,100.28,35.87Zm-18.89,57,.66-.58-.17.86c-.75,3.68-2.79,7.44-4.74,8.74a14.83,14.83,0,0,1-4,1.56,22.61,22.61,0,0,0-2.45.82l-.65.27.25-.65c1.43-3.69,3.64-6.46,6.23-7.81A25.58,25.58,0,0,0,81.39,92.87Zm-.78-57.6.75-.11.59-.09h0a20.8,20.8,0,0,1,3.62-.34c.41,0,.83,0,1.25,0,2.46.17,4.82,1.86,7,5l.4.58-.7-.12c-.59-.1-1.3-.16-2.06-.23A14.23,14.23,0,0,1,86.34,39a40.3,40.3,0,0,1-4.41-2.77l0,0-.66-.45Zm1.54,63.65a56.58,56.58,0,0,0,1.48-6.65c.49-2.61,2.47-6,5.18-7.07l.5-.21-.1.53a24.4,24.4,0,0,0-.25,3,21.92,21.92,0,0,1-.64,5.23c-.7,2.06-2.63,3.91-5.76,5.5l-.63.32Zm5.62-56.77,0,0-.16-.17a1.89,1.89,0,0,1-.2-.2l-.47-.51.86,0h1.16a10.63,10.63,0,0,1,6.36,1.48,8.84,8.84,0,0,1,4.08,6.41l.15.82-.63-.55A16.4,16.4,0,0,0,94.52,47L94.38,47c-.71-.3-1.4-.6-2-.93A15.62,15.62,0,0,1,87.77,42.15Zm2.51,5.6c.33.1.66.17,1.07.26a15.92,15.92,0,0,1,3.78,1.18,9.53,9.53,0,0,1,6,8.08l.1.76-.58-.5a26.31,26.31,0,0,0-5-3,10.64,10.64,0,0,1-5.75-6.43l-.19-.55Zm.44,44.89c0-.27,0-.55,0-.83v-.16a34.14,34.14,0,0,1,.87-7.35,35.84,35.84,0,0,1,1.15-3.46,19.41,19.41,0,0,0,1-3.41l.13-.74.59.91a9.75,9.75,0,0,1,1.89,6.28c-.07,4.24-3.46,7.75-5.24,9l-.5.35Zm5.42-18.55c-.1-1-.24-2-.37-3V71c-.19-1.42-.38-2.88-.52-4.49l-.06-.72.55.47.46.4a11.42,11.42,0,0,1,4.2,5.77c1.09,4-.1,6.61-1.15,8.92l-.3.68-.24-.71c-.22-.65-.54-1.35-.88-2.11A16.22,16.22,0,0,1,96.14,74.09Zm1.13-9.72-.49-.46c-1.68-1.54-4.49-4.66-4.37-8.22l0-.55.45.32a15.77,15.77,0,0,0,1.7,1,15.41,15.41,0,0,1,4.77,3.58,10.91,10.91,0,0,1,2.29,8.44l-.09.92-.46-.81A18.31,18.31,0,0,0,97.27,64.37ZM91.7,27.62c1.56,1.25,3.51,2.81,4.3,5a20.39,20.39,0,0,1,1.22,7.54l0,.71-.47-.53c-.45-.5-1-1-1.61-1.58-1.52-1.4-3.24-3-3.91-4.93a17.17,17.17,0,0,1-.54-5.37v-.12c0-.38,0-.7,0-1v-.63Zm-12.84-6.1a23,23,0,0,0,2.3.9l.06,0c.36.13.78.27,1.14.41,1.7.66,5.75,2.9,6.57,9.53l.1.81-.6-.56a20.45,20.45,0,0,0-4.77-3.55,17.64,17.64,0,0,1-2.58-1.68c-1.59-1.27-1.89-2.51-2.31-4.25l0-.08c-.09-.38-.19-.77-.31-1.2l-.17-.62Zm-7,6.8a19,19,0,0,0,3.58.32c.72,0,1.4.05,2,.12a14,14,0,0,1,8.39,3.83l.46.45-.64.05c-.36,0-.78.08-1.19.14a32.69,32.69,0,0,1-3.92.29,15.58,15.58,0,0,1-2.24-.15,9.88,9.88,0,0,1-6.76-4.6l-.42-.61Zm-16.35.32A18.68,18.68,0,0,0,59,28.32l.73-.16-.42.61a9.86,9.86,0,0,1-6.76,4.6,15.68,15.68,0,0,1-2.24.15,32.69,32.69,0,0,1-3.92-.29c-.41-.06-.82-.11-1.19-.14L44.6,33l.46-.45a14,14,0,0,1,8.39-3.83C54.07,28.69,54.74,28.66,55.48,28.64Zm-25,43.83a11.42,11.42,0,0,1,4.2-5.77l.46-.4.55-.47-.06.72c-.14,1.61-.33,3.07-.52,4.49v.07c-.13,1-.27,2-.37,3a16.47,16.47,0,0,1-1.68,5.16c-.34.76-.66,1.46-.88,2.11l-.24.71-.31-.68C30.59,79.08,29.4,76.47,30.49,72.47Zm-.7-3.85-.46.81-.09-.92a10.91,10.91,0,0,1,2.29-8.44,15.41,15.41,0,0,1,4.77-3.58,16.82,16.82,0,0,0,1.7-1l.45-.32,0,.55c.12,3.56-2.69,6.68-4.38,8.22l-.48.46A18.31,18.31,0,0,0,29.79,68.62Zm6.55,9,.59-.91.13.74a19.41,19.41,0,0,0,1,3.41,35.84,35.84,0,0,1,1.15,3.46,34.78,34.78,0,0,1,.87,7.35v.16c0,.28,0,.56,0,.83l0,.61-.5-.35c-1.78-1.27-5.17-4.78-5.24-9A9.69,9.69,0,0,1,36.34,77.6Zm-1.12-23a26.31,26.31,0,0,0-4.95,3l-.59.5.11-.76a9.51,9.51,0,0,1,6-8.08A15.69,15.69,0,0,1,39.54,48c.39-.09.74-.16,1.06-.26l.56-.18-.19.55A10.64,10.64,0,0,1,35.22,54.55ZM38.54,46c-.64.33-1.33.63-2,.93l-.14.06A16.4,16.4,0,0,0,32,49.41l-.63.55.15-.82a8.84,8.84,0,0,1,4.08-6.41A10.63,10.63,0,0,1,42,41.25h1.16l.86,0-.47.51a1.89,1.89,0,0,1-.2.2l-.17.17,0,0A16,16,0,0,1,38.54,46ZM36.6,40.37l.4-.58c2.2-3.16,4.56-4.85,7-5,.43,0,.85,0,1.25,0a20.7,20.7,0,0,1,3.62.34h0l.58.09.75.11-.62.43-.67.45,0,0A40.3,40.3,0,0,1,44.54,39,14.23,14.23,0,0,1,39.36,40c-.76.07-1.47.13-2.06.23ZM42.07,85.2c2.72,1.1,4.69,4.46,5.18,7.07a54.54,54.54,0,0,0,1.48,6.65l.22.68-.64-.32c-3.11-1.59-5.05-3.44-5.75-5.5a21.92,21.92,0,0,1-.64-5.23,26.55,26.55,0,0,0-.25-3l-.1-.53Zm6.76,7.09.66.58a25.26,25.26,0,0,0,4.86,3.21c2.59,1.35,4.8,4.12,6.22,7.81l.26.65-.65-.27a22.61,22.61,0,0,0-2.45-.82,14.83,14.83,0,0,1-4-1.56c-2-1.3-4-5.06-4.74-8.74ZM42,32.38c.82-6.63,4.87-8.87,6.56-9.53l1.15-.41.06,0a24,24,0,0,0,2.3-.9l.59-.27-.18.62c-.11.43-.21.82-.3,1.2l0,.08c-.42,1.74-.72,3-2.31,4.25a17.64,17.64,0,0,1-2.58,1.68,20.88,20.88,0,0,0-4.78,3.55l-.59.56Zm-7.08.28c.8-2.23,2.74-3.79,4.31-5l1.06-.85v.63c0,.28,0,.6,0,1v.12a17.17,17.17,0,0,1-.54,5.37c-.67,2-2.39,3.53-3.9,4.93-.6.56-1.17,1.08-1.61,1.58l-.48.53,0-.71A20.57,20.57,0,0,1,34.87,32.66Zm-5.81,4.21,0-.08c.25-.49.51-1,.74-1.42l.27-.56.26.57c.05.12.11.25.18.38l0,.11a10.88,10.88,0,0,1,1.29,6.38A30.82,30.82,0,0,1,29.63,50l-.5,1.27-.28.75-.27-.76c-.94-2.69-2-6-1.94-8.2C26.7,41.35,28,39,29.06,36.87Zm-5,9.31.57-1,0,1.12a16.24,16.24,0,0,0,1.13,5.88c.09.25.22.55.37.89.92,2.12,2.63,6.08,1.84,10.75l-.11.65L27.39,64l-.72-.88C25,61.06,22.49,58,22.15,55A13.61,13.61,0,0,1,24,46.18Zm-3.3,13.29.14-.87.41.78a25.77,25.77,0,0,0,3.4,4.74c1.94,2.18,3,5.56,3,9.52v.69l-.5-.48a23.41,23.41,0,0,0-2-1.63A15.16,15.16,0,0,1,22,69.33C20.67,67.41,20.1,63.17,20.72,59.47Zm.17,14-.08-.7.56.44A37,37,0,0,0,25,75.6l.78.47c2.13,1.31,3.91,4.7,5.34,7.42.21.41.42.8.62,1.17l.3.56-.62-.13c-3.14-.65-5.34-1.58-6.73-2.88C21.81,79.55,21.22,76.32,20.89,73.5Zm7.58,16.74A28.65,28.65,0,0,0,25.83,87l-.54-.54.77,0c2,.11,5.32.3,6.79,1.48a29.46,29.46,0,0,1,2.7,2.74,34.46,34.46,0,0,0,3.75,3.73l.52.4-.65.12a13.24,13.24,0,0,1-2.42.23,8.91,8.91,0,0,1-5.72-2A16.91,16.91,0,0,1,28.47,90.24Zm13.86,12.1c-2.06-.26-5.22-1.09-8.73-5.24l-.53-.61.79.14a17.18,17.18,0,0,0,2.75.16h.88a15.16,15.16,0,0,1,3.6.31,10.5,10.5,0,0,1,3.43,2,17.47,17.47,0,0,0,3.24,2.07l.75.32-.78.23a16.41,16.41,0,0,1-4.39.64A8,8,0,0,1,42.33,102.34Zm9,5.06A10.07,10.07,0,0,1,44,104.12l-.5-.54.73,0a1.51,1.51,0,0,1,.38.08,1,1,0,0,0,.26.07,22.21,22.21,0,0,0,2.91-.16h.1a17.8,17.8,0,0,1,2-.19h.58a13.8,13.8,0,0,1,8.3,2.48l.52.36-.62.16a2,2,0,0,1-.55,0,2,2,0,0,0-.59.06,22.77,22.77,0,0,1-6.08.88Zm10,2.71a5.41,5.41,0,0,1-4.1,2.5l-2.4-1.8a7.91,7.91,0,0,0,4.44-1.9c.78-.81,1.27-2,2.48-2.89h2.76A14.49,14.49,0,0,0,61.3,110.11ZM60.7,86a4.34,4.34,0,0,0-.94-.51c-.25,0-.71.58-.93,1.38l-.27,1H54.91V74.41h3.62l.22,1.19C59.6,79.68,62.54,84,66.52,84c1.4,0,4.63-.35,4.63-3.56,0-1.86-1.82-2.63-5.68-3.82-3-.94-6.47-2-8.48-4.7-3.13-.79-6.57-3.63-6.57-12.39V45.41h3.8V47c0,2.95.6,2.87,2.2,2.87h7.16c0-.35,0-.84,0-1.72V46.79h3.8v1.39a8.58,8.58,0,0,0,.2,1.72H75.6a6.1,6.1,0,0,0,.84,0A13,13,0,0,0,76.66,47V45.41h3.8v14c0,11.09-6,12-7.85,12-3.28,0-5.29-2.06-6.52-4.78a12.41,12.41,0,0,1-1.77,2.93l1.53.44c4.25,1.19,10.07,2.82,10.07,9.89,0,4.8-3.79,8-9.42,8A10,10,0,0,1,60.7,86Zm13,26.57a5.41,5.41,0,0,1-4.1-2.5A14.67,14.67,0,0,0,66.4,106h2.76a19.51,19.51,0,0,1,2.48,2.89,7.91,7.91,0,0,0,4.44,1.9Zm13.19-8.49a10.06,10.06,0,0,1-7.31,3.28h-.08a22.85,22.85,0,0,1-6.09-.88,1.94,1.94,0,0,0-.58-.06,2,2,0,0,1-.55,0l-.62-.16.52-.36a13.82,13.82,0,0,1,8.3-2.48h.59a17.87,17.87,0,0,1,1.94.19h.1a22.21,22.21,0,0,0,2.91.16,1,1,0,0,0,.26-.07,1.51,1.51,0,0,1,.38-.08l.74,0Zm10.42-7c-3.52,4.15-6.67,5-8.74,5.24a8,8,0,0,1-1,0,16.41,16.41,0,0,1-4.39-.64l-.78-.23.75-.32a16.77,16.77,0,0,0,3.23-2.07,10.63,10.63,0,0,1,3.44-2,15.16,15.16,0,0,1,3.6-.31h.88A17,17,0,0,0,97,96.63l.8-.14ZM105.05,87a29.79,29.79,0,0,0-2.64,3.22,16.5,16.5,0,0,1-2.56,3,8.9,8.9,0,0,1-5.71,2A13.26,13.26,0,0,1,91.71,95l-.65-.12.53-.4a35.38,35.38,0,0,0,3.75-3.73A29.53,29.53,0,0,1,98,88c1.47-1.18,4.8-1.37,6.79-1.48l.78,0ZM110,73.5c-.33,2.82-.92,6-3.8,8.71-1.39,1.3-3.6,2.23-6.74,2.88l-.61.13.3-.56c.2-.37.41-.76.62-1.17,1.43-2.72,3.21-6.11,5.33-7.42l.79-.47a37,37,0,0,0,3.63-2.36l.56-.44Zm-1.14-4.17a15.16,15.16,0,0,1-3.17,2.89,23.41,23.41,0,0,0-2,1.63l-.5.48v-.69c0-4,1.08-7.34,3-9.52a26.16,26.16,0,0,0,3.39-4.74l.41-.78.14.87C110.78,63.17,110.21,67.41,108.85,69.33Z"/><path class="cls-2" d="M158.68,50.94l-.05,2.79,3.15-.09h11a13.45,13.45,0,0,1-.14,2.21q-.5,2.86-3.87,2.86H156.16a3.31,3.31,0,0,1-2.54-1,3.65,3.65,0,0,1-.92-2.62V28.25l.32-.31h18.74a13.11,13.11,0,0,1,.21,2.41,7.87,7.87,0,0,1-.49,2.66H158.63l.05,3.11v4.63l2.92,0h7.59a7.4,7.4,0,0,1,.36,2.45,7.51,7.51,0,0,1-.36,2.48H158.68Z"/><path class="cls-2" d="M201.45,27.94V47.58c0,3.74-1,6.61-3.08,8.64s-4.94,3-8.69,3-6.6-1-8.65-3S178,51.32,178,47.58V28l.27-.31h2.26a3.49,3.49,0,0,1,2.68.93,4.2,4.2,0,0,1,.86,2.93V47.62q0,6.84,5.66,6.83t5.71-6.83V27.94a17.5,17.5,0,0,1,3-.22,17.74,17.74,0,0,1,3,.22"/><path class="cls-2" d="M229.62,37.2a9,9,0,0,1-.43,2.81A8.43,8.43,0,0,1,228,42.39a8.84,8.84,0,0,1-1.77,1.84A7.56,7.56,0,0,1,224,45.42a4.22,4.22,0,0,1,2,1.39,9.15,9.15,0,0,1,1.37,2.56L229,53.91a10.67,10.67,0,0,0,.9,1.94,4.58,4.58,0,0,0,1.21,1.34,4.07,4.07,0,0,1-1.69,1.31,5.86,5.86,0,0,1-2.47.49,2.93,2.93,0,0,1-2.14-.81,7.49,7.49,0,0,1-1.47-2.74l-1.9-5.35a5.91,5.91,0,0,0-1.49-2.4,3.88,3.88,0,0,0-2.7-.83h-2.76V58.63c-.42.06-.88.11-1.39.15s-1.06.07-1.67.07a16.66,16.66,0,0,1-2.91-.22V28.16l.31-.26,6.17-.14c1.7,0,3.06,0,4.08,0a11.5,11.5,0,0,1,7.7,2.42q2.85,2.43,2.85,7.06m-15.14-4.91v9.89c1.56-.09,2.93-.13,4.13-.13,3.21,0,4.8-1.62,4.8-4.85s-1.59-4.86-4.8-4.86h-2.4c-.68,0-1.25,0-1.73-.05"/><path class="cls-2" d="M238.16,56.52q-4.82-4.14-4.81-13.21a24.17,24.17,0,0,1,.87-6.79,14.11,14.11,0,0,1,2.56-5,11.4,11.4,0,0,1,4.1-3.12,14.44,14.44,0,0,1,11,0,11.1,11.1,0,0,1,4.06,3.12,14.24,14.24,0,0,1,2.55,5,24.52,24.52,0,0,1,.87,6.76,24.37,24.37,0,0,1-.87,6.74,14.26,14.26,0,0,1-2.55,5,11,11,0,0,1-4.06,3.12,13.33,13.33,0,0,1-5.46,1.07,12.47,12.47,0,0,1-8.22-2.73M253,43.31Q253,32,246.33,32t-6.65,11.28q0,11.23,6.65,11.23T253,43.31"/><path class="cls-2" d="M275.12,48.43H271v10.2a21.11,21.11,0,0,1-6.08,0V28.17l.32-.27,6.09-.14,3.74,0a11.13,11.13,0,0,1,7.76,2.64q2.9,2.66,2.89,7.69a12,12,0,0,1-.76,4.44,8.66,8.66,0,0,1-2.14,3.24,9.59,9.59,0,0,1-3.34,2,13.05,13.05,0,0,1-4.37.69m-4.11-16V43.85c1.15,0,2.15-.05,3-.05a12.45,12.45,0,0,0,2.09-.15,3.71,3.71,0,0,0,1.48-.59,4.07,4.07,0,0,0,1.1-1.28,6.16,6.16,0,0,0,.66-1.73,8.59,8.59,0,0,0,.23-1.95,9.47,9.47,0,0,0-.23-2.05,5.36,5.36,0,0,0-.76-1.82,4,4,0,0,0-1.42-1.3,4.61,4.61,0,0,0-2.24-.5h-2.25c-.65,0-1.19,0-1.63,0"/><path class="cls-2" d="M296.88,50.94l0,2.79,3.14-.09h11a14.94,14.94,0,0,1-.13,2.21c-.34,1.91-1.62,2.86-3.88,2.86H294.36a3.29,3.29,0,0,1-2.53-1,3.61,3.61,0,0,1-.92-2.62V28.25l.31-.31H310a11.53,11.53,0,0,1,.23,2.41,8.12,8.12,0,0,1-.49,2.66H296.84l0,3.11v4.63l2.92,0h7.6a7.42,7.42,0,0,1,.35,2.45,7.53,7.53,0,0,1-.35,2.48H296.88Z"/><path class="cls-2" d="M332,51.66l-2.2.05h-6.29l-2.2-.05-2.11,7a13.07,13.07,0,0,1-2.68.21,8.48,8.48,0,0,1-2.81-.39l-.22-.32,10-30.24a26.93,26.93,0,0,1,3.59-.22,19.6,19.6,0,0,1,3.38.26l9.83,30.24a6,6,0,0,1-3.11.77,4.1,4.1,0,0,1-2.62-.67,5.38,5.38,0,0,1-1.32-2.57Zm-9.21-4.77,2,0h3.86l1.89,0-1.34-4.57c-1-3.41-1.82-6.32-2.43-8.72h-.27c-.27,1.29-.93,3.83-2,7.6Z"/><path class="cls-2" d="M367.78,27.67l.32.31V58.54a16.35,16.35,0,0,1-3.51.31,26.36,26.36,0,0,1-3.68-.22l-8.27-17.39c-1.19-2.64-2.09-4.73-2.69-6.29l-.19,0q.51,6.34.5,12.23V58.63a16.34,16.34,0,0,1-2.85.22,15,15,0,0,1-2.77-.22V28a14.47,14.47,0,0,1,3.42-.32,26.46,26.46,0,0,1,3.68.22l8.18,17.39L362.84,52l.14,0c-.31-4.34-.45-8.44-.45-12.31V31.4a4.34,4.34,0,0,1,.76-2.88,3.29,3.29,0,0,1,2.56-.85Z"/><path class="cls-2" d="M153.06,72.2c2.34,0,4.32-.1,5.95-.12s2.93,0,3.88,0c3.28,0,5.79.69,7.56,2.08a7.23,7.23,0,0,1,2.65,6A6.64,6.64,0,0,1,172,83.93a6.35,6.35,0,0,1-3,2.47,7.57,7.57,0,0,1,2.17,1.11,7.76,7.76,0,0,1,1.78,1.79,8.6,8.6,0,0,1,1.2,2.31,8.24,8.24,0,0,1,.42,2.61,8.11,8.11,0,0,1-2.82,6.63q-2.84,2.31-8.14,2.31c-1.1,0-2.53,0-4.26,0s-3.83-.09-6.25-.13l-.31-.28V72.47Zm5.66,4.19V84.6h3.91c3,0,4.5-1.37,4.5-4.13a4.24,4.24,0,0,0-.65-2.56,3.36,3.36,0,0,0-1.83-1.17,9.74,9.74,0,0,0-2.72-.29q-1.55,0-3.21-.06m4.42,12.66h-4.42v9.8c.57,0,1.23,0,1.94,0s1.45,0,2.17,0a20.2,20.2,0,0,0,2.1-.2,3.85,3.85,0,0,0,1.8-.75A3.92,3.92,0,0,0,168,96.33a5.19,5.19,0,0,0,.48-2.42,5.09,5.09,0,0,0-.32-1.82,4.4,4.4,0,0,0-1-1.56,4.33,4.33,0,0,0-1.64-1.07,6.32,6.32,0,0,0-2.42-.41"/><path class="cls-2" d="M195.56,96l-2.2,0h-6.29l-2.2,0-2.11,7a12.24,12.24,0,0,1-2.67.22,8,8,0,0,1-2.82-.4l-.22-.31,10-30.24a27,27,0,0,1,3.6-.22,18.5,18.5,0,0,1,3.36.26l9.85,30.24a6.1,6.1,0,0,1-3.13.76,4,4,0,0,1-2.61-.67,5.33,5.33,0,0,1-1.32-2.57Zm-9.21-4.76,2,0h3.86l1.89,0-1.35-4.58c-1-3.42-1.82-6.32-2.42-8.72h-.26c-.28,1.29-.93,3.82-2,7.6Z"/><path class="cls-2" d="M229.35,81.5a9,9,0,0,1-.42,2.82,8.39,8.39,0,0,1-1.2,2.37A9.42,9.42,0,0,1,226,88.54a7.3,7.3,0,0,1-2.22,1.18,4.23,4.23,0,0,1,1.94,1.4,9,9,0,0,1,1.38,2.56l1.66,4.54a10.14,10.14,0,0,0,.9,1.92,4.68,4.68,0,0,0,1.21,1.36,4,4,0,0,1-1.68,1.3,6,6,0,0,1-2.48.49,2.94,2.94,0,0,1-2.14-.8,7.73,7.73,0,0,1-1.48-2.74l-1.87-5.36a6.21,6.21,0,0,0-1.5-2.39,3.93,3.93,0,0,0-2.72-.84h-2.75v11.78c-.42.06-.88.1-1.39.16s-1.06.06-1.67.06a16.66,16.66,0,0,1-2.91-.22V72.47l.31-.27,6.18-.13c1.69,0,3,0,4.07,0a11.5,11.5,0,0,1,7.7,2.42q2.85,2.42,2.85,7m-15.14-4.89V86.5c1.56-.1,2.93-.14,4.13-.14q4.82,0,4.81-4.86t-4.81-4.85h-2.4c-.67,0-1.26,0-1.73,0"/><path class="cls-2" d="M245.66,80.56v22.37a20.07,20.07,0,0,1-6.06,0V80.56l0-3.32-2.74,0h-5a14.49,14.49,0,0,1,0-5h21.47a9.08,9.08,0,0,1,.32,2.45,2.37,2.37,0,0,1-.76,2,3.87,3.87,0,0,1-2.47.63h-2.11l-2.75,0Z"/><path class="cls-2" d="M263.5,95.25l0,2.79L266.6,98h11a15.17,15.17,0,0,1-.12,2.2c-.35,1.91-1.62,2.87-3.88,2.87H261a3.26,3.26,0,0,1-2.53-1,3.6,3.6,0,0,1-.93-2.62V72.56l.32-.31h18.73a12.14,12.14,0,0,1,.23,2.4,8.28,8.28,0,0,1-.49,2.68H263.46l0,3.09v4.64l2.92,0H274A8.69,8.69,0,0,1,274,90H263.5Z"/><path class="cls-2" d="M306.31,72l.33.32v30.55a15.73,15.73,0,0,1-3.51.32,26.27,26.27,0,0,1-3.69-.23l-8.27-17.38c-1.2-2.64-2.09-4.74-2.69-6.29l-.19,0c.33,4.21.5,8.3.5,12.22v11.41a16.2,16.2,0,0,1-2.85.23,14.68,14.68,0,0,1-2.76-.23V72.33a15.68,15.68,0,0,1,3.41-.3,26.51,26.51,0,0,1,3.69.22l8.17,17.39,2.92,6.65.14-.05c-.3-4.35-.45-8.44-.45-12.31V75.7a4.25,4.25,0,0,1,.77-2.87,3.26,3.26,0,0,1,2.56-.86Z"/><path class="cls-2" d="M333.05,100.91a8.54,8.54,0,0,1-3.66,1.71,20.33,20.33,0,0,1-4.74.54l-3.75,0c-1.69,0-3.86-.09-6.49-.13l-.32-.28V72.47l.32-.27c1.73,0,3.48-.1,5.22-.12s3.55,0,5.38,0a14.42,14.42,0,0,1,6.27,1.2,10.11,10.11,0,0,1,4,3.35,13.71,13.71,0,0,1,2.09,5,28.58,28.58,0,0,1,.61,6.07,26.35,26.35,0,0,1-1,7.74,11.16,11.16,0,0,1-3.88,5.55m-2.47-20.53c-.89-2.4-2.74-3.59-5.54-3.59h-2.78c-.81,0-1.51,0-2.1-.05v21.7c.55,0,1.22,0,1.94,0s1.46,0,2.21-.05a18.51,18.51,0,0,0,2.09-.18,5.19,5.19,0,0,0,1.59-.45,5.41,5.41,0,0,0,1.9-1.68A7.89,7.89,0,0,0,331,93.61a15.5,15.5,0,0,0,.56-3c.1-1.06.15-2.16.15-3.29a26.8,26.8,0,0,0-.23-3.6,15.6,15.6,0,0,0-.93-3.37"/><path class="cls-2" d="M349.59,95.25l0,2.79,3.15-.09h11a13.62,13.62,0,0,1-.13,2.2q-.49,2.86-3.86,2.87H347.07a3.28,3.28,0,0,1-2.54-1,3.6,3.6,0,0,1-.92-2.62V72.56l.32-.31h18.73a12.16,12.16,0,0,1,.22,2.4,8,8,0,0,1-.49,2.68H349.54l0,3.09v4.64l2.91,0h7.6a8.69,8.69,0,0,1,0,4.95H349.59Z"/><path class="cls-2" d="M390.38,81.5a9,9,0,0,1-.43,2.82,8.62,8.62,0,0,1-1.18,2.37A9.23,9.23,0,0,1,387,88.54a7.08,7.08,0,0,1-2.22,1.18,4.29,4.29,0,0,1,2,1.4,9,9,0,0,1,1.37,2.56l1.67,4.54a9,9,0,0,0,.89,1.92,4.83,4.83,0,0,0,1.21,1.36,4,4,0,0,1-1.67,1.3,6,6,0,0,1-2.48.49,2.91,2.91,0,0,1-2.15-.8,7.73,7.73,0,0,1-1.48-2.74l-1.89-5.36A6.19,6.19,0,0,0,380.71,92a3.94,3.94,0,0,0-2.71-.84h-2.76v11.78c-.42.06-.88.1-1.4.16s-1,.06-1.66.06a16.66,16.66,0,0,1-2.91-.22V72.47l.31-.27,6.18-.13c1.69,0,3,0,4.06,0a11.49,11.49,0,0,1,7.71,2.42q2.85,2.42,2.85,7m-15.14-4.89V86.5c1.56-.1,2.93-.14,4.13-.14q4.81,0,4.81-4.86t-4.81-4.85H377c-.67,0-1.25,0-1.73,0"/><path class="cls-2" d="M403.72,100.24a6.73,6.73,0,0,1,.84-2.54,6.89,6.89,0,0,1,1.59-2,16.87,16.87,0,0,0,9.08,3,5.39,5.39,0,0,0,3.41-1,3.12,3.12,0,0,0,1.25-2.54c0-1.74-1.21-3.11-3.45-4.09l-5.3-2.26a11.14,11.14,0,0,1-4.72-3.34,7.52,7.52,0,0,1-1.57-4.7,8.55,8.55,0,0,1,.78-3.68,8.4,8.4,0,0,1,2.24-2.86,11.3,11.3,0,0,1,3.47-1.86,13.75,13.75,0,0,1,4.42-.68,20.86,20.86,0,0,1,9.71,2.48,6.45,6.45,0,0,1-2.11,4.58,19.42,19.42,0,0,0-7.91-2.11,4.94,4.94,0,0,0-3.3,1A3.06,3.06,0,0,0,411,80q0,2,3.18,3.39l5.3,2.24a12.31,12.31,0,0,1,5,3.55,7.92,7.92,0,0,1,1.75,5.08,9.55,9.55,0,0,1-.72,3.74,7.58,7.58,0,0,1-2.17,3,10.4,10.4,0,0,1-3.65,1.94,17,17,0,0,1-5.14.7,19.43,19.43,0,0,1-10.83-3.33"/><path class="cls-2" d="M447.76,83.71v-.46a11,11,0,0,0-.32-2.72,6.33,6.33,0,0,0-1-2.15A4.67,4.67,0,0,0,444.72,77a5.62,5.62,0,0,0-2.53-.53,5,5,0,0,0-4.77,3c-1,2-1.48,4.94-1.48,8.92,0,3.17.61,5.64,1.82,7.39a5.74,5.74,0,0,0,5,2.63,9.64,9.64,0,0,0,3.61-.79,18,18,0,0,0,4.2-2.49,7.5,7.5,0,0,1,1.79,1.74,5.6,5.6,0,0,1,1.09,2.17,13.17,13.17,0,0,1-2.32,1.82,17.82,17.82,0,0,1-2.86,1.45,18.38,18.38,0,0,1-3.18,1,15,15,0,0,1-3.32.37,11.28,11.28,0,0,1-5.62-1.29,10.64,10.64,0,0,1-3.75-3.46,14.78,14.78,0,0,1-2.11-5.06,27.46,27.46,0,0,1-.65-6.06,22.82,22.82,0,0,1,1-7.07,14.88,14.88,0,0,1,2.67-5,11.08,11.08,0,0,1,3.94-3,11.7,11.7,0,0,1,4.84-1,15.19,15.19,0,0,1,4.78.71,11.1,11.1,0,0,1,3.62,2,8.92,8.92,0,0,1,2.3,2.87,8,8,0,0,1,.8,3.53c0,2.24-1.13,3.37-3.41,3.37a8.25,8.25,0,0,1-1.08-.07,9.07,9.07,0,0,1-1.3-.24"/><path class="cls-2" d="M475.79,84.6l0-3.32v-9a16.27,16.27,0,0,1,3-.22,17.88,17.88,0,0,1,3.08.22v30.69a19.49,19.49,0,0,1-3.08.22,17.72,17.72,0,0,1-3-.22v-10l0-3.33-2.36,0h-6.32l-2.41,0,0,3.33v10a21,21,0,0,1-6.06,0V72.25a21,21,0,0,1,6.06,0v9l0,3.32,2.41,0h6.32Z"/><path class="cls-2" d="M492.23,100.82c-3.21-2.75-4.8-7.16-4.8-13.2a24.12,24.12,0,0,1,.87-6.79,14,14,0,0,1,2.57-5A11,11,0,0,1,495,72.7a14.44,14.44,0,0,1,11,0A10.92,10.92,0,0,1,510,75.82a14.3,14.3,0,0,1,2.53,5,26.58,26.58,0,0,1,0,13.49,14.37,14.37,0,0,1-2.53,5,11.13,11.13,0,0,1-4.07,3.12,13.33,13.33,0,0,1-5.46,1.08,12.51,12.51,0,0,1-8.23-2.75m14.83-13.2q0-11.3-6.64-11.29t-6.66,11.29c0,7.49,2.22,11.22,6.66,11.22s6.64-3.73,6.64-11.22"/><path class="cls-2" d="M522,100.82c-3.21-2.75-4.81-7.16-4.81-13.2a24.49,24.49,0,0,1,.87-6.79,14.21,14.21,0,0,1,2.57-5,11.07,11.07,0,0,1,4.09-3.12,14.44,14.44,0,0,1,11,0,11.12,11.12,0,0,1,4.08,3.12,14.64,14.64,0,0,1,2.53,5,26.58,26.58,0,0,1,0,13.49,14.72,14.72,0,0,1-2.53,5,11.34,11.34,0,0,1-4.08,3.12,13.32,13.32,0,0,1-5.45,1.08,12.51,12.51,0,0,1-8.23-2.75m14.83-13.2q0-11.3-6.65-11.29t-6.65,11.29c0,7.49,2.22,11.22,6.65,11.22s6.65-3.73,6.65-11.22"/><path class="cls-2" d="M558.87,97.81h8.36a12.62,12.62,0,0,1-.18,2.3c-.33,1.94-1.64,2.91-3.91,2.91H552.22a3.35,3.35,0,0,1-2.56-1,3.55,3.55,0,0,1-.95-2.62V72.29L549,72h2.24a3.49,3.49,0,0,1,2.66.92,4.28,4.28,0,0,1,.84,2.95V98c1.29-.11,2.66-.18,4.1-.18"/></svg>