<?xml version="1.0" encoding="UTF-8"?>
<svg width="53px" height="54px" viewBox="0 0 53 54" version="1.1" xmlns="http://www.w3.org/2000/svg" xmlns:xlink="http://www.w3.org/1999/xlink">
    <!-- Generator: Sketch 60.1 (88133) - https://sketch.com -->
    <title>Group 8</title>
    <desc>Created with Sketch.</desc>
    <defs>
        <polygon id="path-1" points="0.4947 0.061 6.7257 0.061 6.7257 6.9838 0.4947 6.9838"></polygon>
        <polygon id="path-3" points="0.6161 0.1852 6.2231 0.1852 6.2231 4 0.6161 4"></polygon>
        <polygon id="path-5" points="0.39 0.061 6.622 0.061 6.622 6.9838 0.39 6.9838"></polygon>
        <polygon id="path-7" points="0 0.7046 4.1887 0.7046 4.1887 9.8216 0 9.8216"></polygon>
        <polygon id="path-9" points="0.8886 0.1852 6.5006 0.1852 6.5006 4 0.8886 4"></polygon>
    </defs>
    <g id="1.4-Design-(Addons-icons-/-Footer-in-1st-screen)" stroke="none" stroke-width="1" fill="none" fill-rule="evenodd">
        <g id="Course-Type-Copy" transform="translate(-32.000000, -493.000000)">
            <g id="Footer" transform="translate(0.000000, 464.000000)">
                <g id="Logo" transform="translate(32.000000, 28.601562)">
                    <g id="Group-8">
                        <path d="M27.7287,26.6003 C28.1877,27.6473 28.9697,28.5993 30.3327,28.5993 C31.5787,28.5993 32.4987,27.8493 33.0287,26.4773 C32.4547,26.9983 31.5577,27.3083 30.1357,27.3083 C29.1107,27.3083 28.3237,27.0903 27.7287,26.6003" id="Fill-47" fill="#063456"></path>
                        <path d="M25.1565,23.0051 C25.1565,25.2891 24.2265,26.4481 22.2975,26.4481 C20.1035,26.4481 19.5905,25.8031 19.5905,23.2131 C19.5905,21.4131 19.6355,21.4041 20.7035,21.4041 L25.1565,21.4041 L25.1565,23.0051 Z M18.8355,23.3021 C18.8355,26.0341 19.4235,27.2611 22.3055,27.2611 C25.0605,27.2611 25.9565,25.2691 25.9565,23.0051 L25.9565,20.8030989 L20.7035,20.8030989 C19.3495,20.8030989 18.8355,20.7911 18.8355,23.3021 L18.8355,23.3021 Z" id="Fill-49" fill="#063456"></path>
                        <path d="M19.424,26.9451 C19.915,28.0951 20.7,28.7791 21.772,28.9781 L22.04,29.0271 L22.183,29.2581 C23.031,30.5951 24.805,31.1441 26.534,31.6751 C28.532,32.2971 30.559,32.9451 30.761,34.9201 L30.761,34.9071 C30.761,31.8721 28.436,31.2201 25.965,30.5261 C25.161,30.2991 24.409,30.0871 23.733,29.7921 L22.676,29.3171 L23.654,28.6971 C24.195,28.3551 24.679,27.7591 25.057,27.0121 C24.365,27.5251 23.476,27.7971 22.402,27.7971 C20.991,27.7971 20.052,27.4941 19.424,26.9451" id="Fill-51" fill="#063456"></path>
                        <path d="M27.1643,19.0027 C26.6703,19.0027 26.3643,18.7367 26.1813,18.4467 C25.9973,18.7367 25.6993,19.0027 25.1973,19.0027 L20.8933,19.0027 C19.8463,19.0027 19.1543,18.7457 18.9543,18.1287 L18.9543,20.5917 C19.1543,20.1067 19.8243,19.8037 20.7633,19.8037 L26.0953,19.8037 L26.2713,19.8037 L26.7173,19.8037 L26.8953,19.8037 L31.5783,19.8037 C32.6243,19.8037 33.1623,20.1777 33.5603,20.6097 L33.5603,18.4557 C33.3603,18.8247 32.7983,19.0027 32.0023,19.0027 L27.1643,19.0027 Z" id="Fill-53" fill="#063456"></path>
                        <path d="M33.9621,23.1174 C33.9621,27.3124 32.4001,29.3014 30.1981,29.3014 C27.5981,29.3014 26.6791,26.4054 26.4561,24.4044 L26.4141,24.4044 C26.1811,26.2044 25.2701,28.4564 23.9321,29.3014 C26.6261,30.4944 31.3481,30.3894 31.3481,34.9734 C31.3481,37.6024 29.1171,38.8454 26.6701,38.8454 C24.3721,38.8454 23.5471,37.3584 22.7681,37.3584 C22.0631,37.3584 21.6401,38.2124 21.4831,38.6094 L20.9541,38.6094 L20.9541,32.8074 L21.4211,32.8074 C21.9611,35.2104 23.9121,38.1544 26.6841,38.1544 C28.5571,38.1544 30.1421,37.2654 30.1421,35.2954 C30.1421,31.9514 23.6731,32.9084 21.6111,29.6474 C19.5841,29.2704 18.1511,27.4394 18.1511,23.1584 L18.1511,16.0014 L18.9261,16.0014 C18.9261,18.0014 19.5241,18.4024 20.8331,18.4024 L25.0901,18.4024 C25.6991,18.4024 25.7921,18.0014 25.7921,16.4004 L25.8631,16.4004 L26.3821,16.4004 L26.4541,16.4004 C26.4541,18.0014 26.5501,18.4024 27.1611,18.4024 L31.9451,18.4024 C33.1431,18.4024 33.3231,18.2014 33.3231,16.0014 L33.9621,16.0014 L33.9621,23.1174 Z M34.1161,15.0014 L32.5621,15.0014 L32.5621,15.9394 C32.5621,16.2984 32.5491,17.3304 32.4311,17.5974 C32.3651,17.6134 32.2231,17.6024 31.9451,17.6024 L27.2741,17.6024 C27.2431,17.4004 27.1571,17.1154 27.1571,16.6064 L27.1571,15.7994 L24.9561,15.7994 L24.9561,16.6064 C24.9561,17.1154 25.0041,17.4004 24.9781,17.6024 L20.8331,17.6024 C19.9001,17.6024 19.5561,17.6504 19.5561,15.9394 L19.5561,15.0014 L17.3531,15.0014 L17.3531,23.1584 C17.3531,28.2324 19.3501,29.8754 21.1581,30.3324 C22.3221,31.8884 24.3061,32.5134 26.0751,33.0614 C28.3111,33.7494 29.3671,34.1954 29.3671,35.2734 C29.3671,37.1334 27.4931,37.3354 26.6841,37.3354 C24.3771,37.3354 22.6711,34.8634 22.1781,32.4974 L22.0531,31.8064 L19.9541,31.8064 L19.9541,39.6094 L22.0681,39.6094 L22.2271,39.0474 C22.3541,38.5874 22.6231,38.2474 22.7681,38.2474 C22.8501,38.2584 23.1151,38.4234 23.3091,38.5464 C23.9821,38.9714 24.9971,39.6094 26.6701,39.6094 C29.9361,39.6094 32.1281,37.7404 32.1281,34.9584 C32.1281,30.8604 28.7571,29.9174 26.2941,29.2254 C25.9901,29.1384 25.6991,29.0564 25.4091,28.9704 C25.8081,28.4934 26.1491,27.9204 26.4311,27.2764 C27.1481,28.8504 28.3111,30.0464 30.2091,30.0464 C31.2871,30.0464 34.7621,29.5444 34.7621,23.1174 L34.7621,15.0014 L34.1161,15.0014 Z" id="Fill-55" fill="#063456"></path>
                        <path d="M21.677,36.073 C21.677,36.574 21.674,36.975 21.668,37.315 C21.974,37.008 22.351,36.798 22.824,36.798 C22.835,36.798 22.848,36.802 22.848,36.802 C22.385,36.271 21.977,35.66 21.646,35.011 C21.664,35.511 21.677,36.073 21.677,36.073" id="Fill-57" fill="#063456"></path>
                        <path d="M30.1487,25.9587 C28.9937,25.9587 27.7577,25.9587 27.7577,21.5597 L27.7577,21.4047 L31.5247,21.4047 C32.2287,21.4047 32.3747,21.4867 32.3997,21.5137 C32.4957,21.6137 32.5807,22.1367 32.5807,23.0407 C32.5807,25.3627 32.3777,25.9587 30.1487,25.9587 M31.5247,20.8027 L26.9577,20.8027 L26.9577,21.5597 C26.9577,25.8047 28.0507,26.7357 30.1367,26.7357 C33.0287,26.7357 33.3547,25.5887 33.3547,23.1247 C33.3547,21.0357 33.1427,20.8027 31.5247,20.8027" id="Fill-59" fill="#063456"></path>
                        <path d="M47.8029,25.6921 L47.8679,26.0731 L48.1089,25.7701 C48.2269,25.6191 48.3669,25.4481 48.5209,25.2561 C49.4849,24.0731 50.9419,22.2861 51.1409,20.5511 C51.3499,18.6891 51.0059,17.0701 50.0589,15.4511 L49.7279,14.8901 L49.7399,15.5431 C49.7649,16.8711 49.3969,18.1271 49.0849,18.9481 C49.0299,19.0911 48.9569,19.2641 48.8709,19.4631 C48.3389,20.6941 47.3499,22.9891 47.8029,25.6921" id="Fill-61" fill="#063456"></path>
                        <path d="M33.5031,8.0271 C33.9051,8.0871 34.3311,8.1151 34.8021,8.1151 C35.6491,8.1151 36.4391,8.0181 37.0741,7.9431 C37.3131,7.9131 37.5541,7.8821 37.7631,7.8641 L38.1301,7.8331 L37.8661,7.5731 C36.6001,6.3361 35.0111,5.6091 33.0031,5.3541 C32.6491,5.3111 32.2541,5.2981 31.8311,5.2881 C31.1941,5.2701 30.4711,5.2541 29.7631,5.0971 L29.3431,5.0061 L29.5861,5.3601 C30.6321,6.8961 31.9471,7.7941 33.5031,8.0271" id="Fill-63" fill="#063456"></path>
                        <g id="Group-67" transform="translate(33.000000, 0.939500)">
                            <mask id="mask-2" fill="white">
                                <use xlink:href="#path-1"></use>
                            </mask>
                            <g id="Clip-66"></g>
                            <path d="M0.7717,1.1208 L0.7817,1.1638 C1.0227,2.1708 1.1987,2.8928 2.1197,3.6248 C2.6957,4.0848 3.1437,4.3358 3.6157,4.6008 C4.3447,5.0128 5.0967,5.4358 6.3787,6.6578 L6.7257,6.9838 L6.6677,6.5138 C6.1957,2.6698 3.8477,1.3718 2.8627,0.9928 C2.6527,0.9118 2.4107,0.8268 2.2007,0.7518 L2.1687,0.7398 C1.7027,0.5768 1.2187,0.4058 0.8327,0.2208 L0.4947,0.0608 L0.5917,0.4208 C0.6627,0.6708 0.7157,0.8988 0.7717,1.1208" id="Fill-65" fill="#063456" mask="url(#mask-2)"></path>
                        </g>
                        <path d="M40.6662,5.1316 L40.6662,5.2046 C40.6612,6.1656 40.6532,7.3636 40.9782,8.3176 C41.3642,9.4466 42.3602,10.3636 43.2412,11.1746 C43.5862,11.4946 43.9152,11.7976 44.1742,12.0866 L44.4492,12.3966 L44.4732,11.9856 C44.5462,10.6996 44.2832,9.0676 43.7682,7.6156 C43.3092,6.3246 42.1802,5.4216 41.2722,4.6946 L40.6582,4.1986 L40.6662,4.5676 C40.6692,4.7306 40.6662,4.9166 40.6662,5.1316" id="Fill-68" fill="#063456"></path>
                        <path d="M41.1721,11.8826 C41.6081,11.9206 42.0221,11.9556 42.3651,12.0126 L42.7661,12.0836 L42.5341,11.7486 C41.2631,9.9166 39.8951,8.9356 38.4681,8.8376 C38.2241,8.8196 37.9811,8.8126 37.7441,8.8126 C36.8801,8.8126 36.1961,8.9196 35.6481,9.0086 L35.6211,9.0126 C35.5011,9.0286 35.3891,9.0456 35.2811,9.0616 L34.8471,9.1236 L35.2101,9.3726 C35.3341,9.4576 35.4611,9.5496 35.5931,9.6396 L35.6131,9.6546 C36.3371,10.1566 37.1561,10.7286 38.1681,11.2616 C38.9841,11.6956 40.1431,11.7946 41.1721,11.8826" id="Fill-70" fill="#063456"></path>
                        <path d="M42.8274,15.9006 L42.9074,15.9336 C43.7494,16.2916 44.6974,16.6966 45.4304,17.3216 L45.7944,17.6356 L45.7084,17.1646 C45.3904,15.4286 44.7054,14.3536 43.3434,13.4496 C42.0664,12.5936 40.7304,12.5936 39.6544,12.5936 L39.4064,12.5936 C39.2614,12.5936 39.1214,12.5916 38.9834,12.5896 L38.4864,12.5736 L38.7614,12.8706 C38.7974,12.9146 38.8354,12.9506 38.8764,12.9896 C38.9064,13.0206 38.9384,13.0506 38.9704,13.0866 L38.9954,13.1126 C39.8014,14.0016 40.4944,14.7646 41.6484,15.3606 C42.0174,15.5496 42.4144,15.7256 42.8274,15.9006" id="Fill-72" fill="#063456"></path>
                        <path d="M46.8098,17.6833 C46.9098,17.9333 47.0038,18.1743 47.0938,18.4133 L47.2588,18.8483 L47.4148,18.4103 C47.9608,16.8523 48.5828,14.9033 48.5408,13.6593 C48.5058,12.6483 47.7798,11.2693 47.1368,10.0513 L47.1168,10.0093 C46.9668,9.7233 46.8188,9.4453 46.6868,9.1823 L46.5248,8.8603 L46.3788,9.1883 C46.3448,9.2603 46.3128,9.3343 46.2778,9.4093 L46.2478,9.4733 C45.8468,10.3383 45.2968,11.5233 45.4998,13.1723 C45.7278,14.9503 46.3028,16.4023 46.8098,17.6833" id="Fill-74" fill="#063456"></path>
                        <path d="M47.926,31.3591 L47.926,31.7611 L48.215,31.4811 C48.538,31.1701 48.962,30.8481 49.373,30.5371 C50.067,30.0091 50.786,29.4661 51.213,28.8621 C52.002,27.7511 52.33,25.2951 51.97,23.1481 L51.887,22.6441 L51.651,23.0971 C51.229,23.9061 50.493,24.9321 49.686,25.8461 C48.554,27.1091 47.934,29.0671 47.926,31.3591" id="Fill-76" fill="#063456"></path>
                        <path d="M42.7639,44.7751 L42.2519,44.7741 C41.5759,44.7741 40.8529,44.7891 40.1679,44.9531 C39.5489,45.1011 38.8829,45.5991 38.1759,46.1301 C37.5689,46.5861 36.9399,47.0571 36.3019,47.3291 L35.8679,47.5171 L36.3209,47.6501 C37.0819,47.8781 38.0779,48.0231 38.8609,48.0231 C39.0729,48.0231 39.2709,48.0131 39.4479,47.9921 C40.6469,47.8411 42.4749,47.3591 44.5129,44.9581 L44.8149,44.6001 L44.3529,44.6791 C43.8329,44.7681 43.2589,44.7751 42.7639,44.7751" id="Fill-78" fill="#063456"></path>
                        <path d="M35.9797,46.2146 C37.7887,45.2976 38.9097,44.2256 39.3157,43.0316 C39.5757,42.2736 39.6317,41.0656 39.6877,40.0026 C39.7237,39.2226 39.7547,38.6436 39.8317,38.2456 L39.8907,37.9366 L39.5997,38.0566 C38.0277,38.6986 36.8807,40.6466 36.5997,42.1526 C36.2517,44.0646 35.9797,45.2876 35.7397,46.0106 L35.6127,46.4036 L35.9797,46.2146 Z" id="Fill-80" fill="#063456"></path>
                        <path d="M44.0149,37.2976 C44.0559,35.3876 43.4249,34.4256 42.9189,33.6546 L42.5779,33.1276 L42.5029,33.5556 C42.3819,34.2506 42.1509,34.8736 41.9029,35.5326 C41.6909,36.0986 41.4519,36.7426 41.2419,37.5376 C40.8589,38.9616 40.7939,40.4696 40.7329,41.7986 L40.7309,41.8906 C40.7219,42.0536 40.7149,42.2156 40.7069,42.3706 L40.6909,42.7236 L40.9759,42.5196 C42.0099,41.7836 43.9729,39.7496 44.0149,37.2976" id="Fill-82" fill="#063456"></path>
                        <path d="M45.3283,35.8337 L45.4663,36.2437 L45.6453,35.8507 C46.2523,34.5137 46.9413,32.9987 46.3073,30.6807 C45.8563,29.0147 44.7133,28.0457 43.8743,27.3387 C43.7803,27.2597 43.6933,27.1837 43.6063,27.1097 L43.2923,26.8357 L43.3253,27.2537 C43.4033,28.1877 43.5153,29.0317 43.6273,29.8537 L43.6313,29.8927 C43.7073,30.4627 43.7873,31.0497 43.8443,31.6237 C43.9513,32.7097 44.4113,33.7197 44.8193,34.6137 C45.0163,35.0487 45.2023,35.4557 45.3283,35.8337" id="Fill-84" fill="#063456"></path>
                        <path d="M46.9797,28.9216 L47.0347,28.3886 C47.1727,27.0676 47.1467,25.3206 45.7087,23.4986 C44.9647,22.5536 43.8467,21.9266 42.9427,21.4236 C42.5687,21.2136 42.2137,21.0166 41.9587,20.8266 L41.6987,20.6396 L41.6877,20.9596 C41.6177,23.0226 43.2427,24.8306 44.2167,25.7266 L44.5007,25.9866 C45.3387,26.7506 46.2047,27.5406 46.7167,28.4516 L46.9797,28.9216 Z" id="Fill-86" fill="#063456"></path>
                        <path d="M43.5676,20.3005 C43.5866,20.3085 45.4116,21.1495 46.4386,22.0295 L46.7746,22.3175 L46.7166,21.8755 C46.5246,20.4435 45.9596,18.4025 43.2586,17.1955 C42.2596,16.7495 41.6006,16.6145 41.0696,16.5065 C40.8366,16.4595 40.6396,16.4195 40.4516,16.3605 L40.1286,16.2545 L40.2386,16.5755 C41.0186,18.8685 42.6606,19.8965 43.5676,20.3005" id="Fill-88" fill="#063456"></path>
                        <path d="M49.4904,32.4978 L49.0344,32.7718 C47.8034,33.5298 46.7714,35.4938 45.9424,37.0678 C45.8204,37.3038 45.6994,37.5328 45.5854,37.7468 L45.4124,38.0688 L45.7674,37.9948 C47.5864,37.6208 48.8644,37.0768 49.6734,36.3268 C51.3384,34.7868 51.6814,32.9158 51.8724,31.2828 L51.9194,30.8738 L51.5954,31.1298 C51.1084,31.5168 50.3954,31.9488 49.4904,32.4978" id="Fill-90" fill="#063456"></path>
                        <path d="M44.9426,39.6794 C44.5236,40.0184 43.9446,40.6514 43.3806,41.2684 C42.6386,42.0794 41.8706,42.9164 41.2096,43.4304 L40.9046,43.6634 L41.2796,43.7334 C41.7786,43.8214 42.2476,43.8674 42.6856,43.8674 C44.2916,43.8674 45.2346,43.2704 45.9936,42.7104 C46.4196,42.3984 46.9326,41.7104 47.4786,40.9804 C47.9446,40.3554 48.4746,39.6464 49.0086,39.1154 L49.3256,38.7994 L48.8746,38.8254 C47.7206,38.8884 45.7936,38.9944 44.9426,39.6794" id="Fill-92" fill="#063456"></path>
                        <path d="M38.1223,48.7878 C38.0683,48.8058 38.0133,48.8238 37.9693,48.8238 C37.3043,48.8238 36.7683,48.7948 36.2853,48.7328 L36.2253,48.7258 C35.8273,48.6738 35.4483,48.6248 35.1013,48.6158 L35.0333,48.6128 C34.9423,48.6108 34.8533,48.6068 34.7623,48.6068 C32.8843,48.6068 31.3113,49.0788 29.9493,50.0458 L29.6483,50.2598 L30.0103,50.3498 C30.1143,50.3768 30.2193,50.3798 30.3253,50.3798 C30.4353,50.3808 30.5513,50.3808 30.6643,50.4138 C31.3283,50.6028 32.6713,50.9208 34.1933,50.9208 L34.2393,50.9208 C36.3713,50.9208 37.8103,49.7318 38.4763,49.0238 L38.7703,48.7128 L38.3423,48.7368 C38.2603,48.7408 38.1913,48.7648 38.1223,48.7878" id="Fill-94" fill="#063456"></path>
                        <path d="M30.5256,48.6365 C31.3586,48.3955 32.2186,48.1435 32.8356,47.7325 C33.9676,46.9745 35.1476,44.7945 35.5836,42.6655 L35.6846,42.1655 L35.3016,42.5045 C34.6196,43.1115 33.5606,43.8055 32.4816,44.3655 C30.9826,45.1485 29.7006,46.7535 28.8746,48.8885 L28.7296,49.2675 L29.1026,49.1065 C29.5136,48.9305 30.0046,48.7885 30.5256,48.6365" id="Fill-96" fill="#063456"></path>
                        <g id="Group-100" transform="translate(26.000000, 49.939500)">
                            <mask id="mask-4" fill="white">
                                <use xlink:href="#path-3"></use>
                            </mask>
                            <g id="Clip-99"></g>
                            <path d="M2.2141,0.1852 C2.9111,0.7192 3.1971,1.3912 3.6491,1.8562 C4.5901,2.8232 6.2231,2.9612 6.2231,2.9612 L4.8321,4.0002 C4.5101,4.0002 3.1741,3.7482 2.4571,2.5552 C1.9201,1.6552 1.3561,0.7652 0.6161,0.1852 L2.2141,0.1852 Z" id="Fill-98" fill="#063456" mask="url(#mask-4)"></path>
                        </g>
                        <path d="M4.3117,25.6921 L4.2457,26.0731 L4.0087,25.7701 C3.8907,25.6191 3.7497,25.4481 3.5927,25.2561 C2.6287,24.0731 1.1707,22.2861 0.9747,20.5511 C0.7647,18.6891 1.1077,17.0701 2.0567,15.4511 L2.3867,14.8901 L2.3747,15.5431 C2.3507,16.8711 2.7167,18.1271 3.0307,18.9481 C3.0817,19.0911 3.1577,19.2641 3.2457,19.4631 C3.7777,20.6941 4.7667,22.9891 4.3117,25.6921" id="Fill-101" fill="#063456"></path>
                        <path d="M18.6135,8.0271 C18.2085,8.0871 17.7825,8.1151 17.3115,8.1151 C16.4675,8.1151 15.6755,8.0181 15.0405,7.9431 C14.8055,7.9131 14.5635,7.8821 14.3505,7.8641 L13.9835,7.8331 L14.2475,7.5731 C15.5145,6.3361 17.1055,5.6091 19.1105,5.3541 C19.4675,5.3111 19.8585,5.2981 20.2835,5.2881 C20.9215,5.2701 21.6425,5.2541 22.3505,5.0971 L22.7715,5.0061 L22.5305,5.3601 C21.4835,6.8961 20.1685,7.7941 18.6135,8.0271" id="Fill-103" fill="#063456"></path>
                        <g id="Group-107" transform="translate(12.000000, 0.939500)">
                            <mask id="mask-6" fill="white">
                                <use xlink:href="#path-5"></use>
                            </mask>
                            <g id="Clip-106"></g>
                            <path d="M6.344,1.1208 L6.334,1.1638 C6.092,2.1708 5.914,2.8928 4.992,3.6248 C4.418,4.0848 3.973,4.3358 3.499,4.6008 C2.771,5.0128 2.02,5.4358 0.733,6.6578 L0.39,6.9838 L0.445,6.5138 C0.918,2.6698 3.266,1.3718 4.249,0.9928 C4.461,0.9118 4.704,0.8268 4.915,0.7518 L4.949,0.7398 C5.411,0.5768 5.895,0.4058 6.284,0.2208 L6.622,0.0608 L6.52,0.4208 C6.452,0.6708 6.399,0.8988 6.344,1.1208" id="Fill-105" fill="#063456" mask="url(#mask-6)"></path>
                        </g>
                        <path d="M11.4485,5.1316 L11.4485,5.2046 C11.4525,6.1656 11.4605,7.3636 11.1375,8.3176 C10.7495,9.4466 9.7515,10.3636 8.8745,11.1746 C8.5275,11.4946 8.2005,11.7976 7.9415,12.0866 L7.6675,12.3966 L7.6445,11.9856 C7.5675,10.6996 7.8315,9.0676 8.3455,7.6156 C8.8055,6.3246 9.9335,5.4216 10.8395,4.6946 L11.4575,4.1986 L11.4485,4.5676 C11.4455,4.7306 11.4455,4.9166 11.4485,5.1316" id="Fill-108" fill="#063456"></path>
                        <path d="M10.9436,11.8826 C10.5066,11.9206 10.0936,11.9556 9.7506,12.0126 L9.3456,12.0836 L9.5806,11.7486 C10.8516,9.9166 12.2196,8.9356 13.6486,8.8376 C13.8916,8.8196 14.1356,8.8126 14.3726,8.8126 C15.2366,8.8126 15.9196,8.9196 16.4666,9.0086 L16.4976,9.0126 C16.6146,9.0286 16.7256,9.0456 16.8326,9.0616 L17.2666,9.1236 L16.9066,9.3726 C16.7796,9.4576 16.6506,9.5496 16.5176,9.6396 L16.5026,9.6546 C15.7776,10.1566 14.9586,10.7286 13.9476,11.2616 C13.1316,11.6956 11.9726,11.7946 10.9436,11.8826" id="Fill-110" fill="#063456"></path>
                        <path d="M9.2863,15.9006 L9.2073,15.9336 C8.3683,16.2916 7.4173,16.6966 6.6863,17.3216 L6.3193,17.6356 L6.4073,17.1646 C6.7263,15.4286 7.4083,14.3536 8.7693,13.4496 C10.0503,12.5936 11.3853,12.5936 12.4603,12.5936 L12.7093,12.5936 C12.8523,12.5936 12.9943,12.5916 13.1313,12.5896 L13.6273,12.5736 L13.3553,12.8706 C13.3163,12.9146 13.2783,12.9506 13.2403,12.9896 C13.2073,13.0206 13.1753,13.0506 13.1433,13.0866 L13.1233,13.1126 C12.3143,14.0016 11.6193,14.7646 10.4683,15.3606 C10.0983,15.5496 9.6993,15.7256 9.2863,15.9006" id="Fill-112" fill="#063456"></path>
                        <path d="M5.3069,17.6833 C5.2089,17.9333 5.1099,18.1743 5.0199,18.4133 L4.8549,18.8483 L4.6989,18.4103 C4.1539,16.8523 3.5339,14.9033 3.5729,13.6593 C3.6109,12.6483 4.3329,11.2693 4.9789,10.0513 L4.9979,10.0093 C5.1469,9.7233 5.2969,9.4453 5.4269,9.1823 L5.5879,8.8603 L5.7349,9.1883 C5.7669,9.2603 5.8009,9.3343 5.8379,9.4093 L5.8649,9.4733 C6.2689,10.3383 6.8169,11.5233 6.6139,13.1723 C6.3859,14.9503 5.8149,16.4023 5.3069,17.6833" id="Fill-114" fill="#063456"></path>
                        <g id="Group-118" transform="translate(0.000000, 21.939500)">
                            <mask id="mask-8" fill="white">
                                <use xlink:href="#path-7"></use>
                            </mask>
                            <g id="Clip-117"></g>
                            <path d="M4.1887,9.4196 L4.1887,9.8216 L3.8997,9.5416 C3.5777,9.2306 3.1537,8.9086 2.7407,8.5976 C2.0447,8.0696 1.3297,7.5266 0.9007,6.9226 C0.1127,5.8116 -0.2133,3.3556 0.1447,1.2086 L0.2257,0.7046 L0.4627,1.1576 C0.8847,1.9666 1.6207,2.9926 2.4307,3.9066 C3.5587,5.1696 4.1817,7.1276 4.1887,9.4196" id="Fill-116" fill="#063456" mask="url(#mask-8)"></path>
                        </g>
                        <path d="M9.3528,44.7751 L9.8608,44.7741 C10.5408,44.7741 11.2618,44.7891 11.9478,44.9531 C12.5668,45.1011 13.2318,45.5991 13.9378,46.1301 C14.5478,46.5861 15.1758,47.0571 15.8128,47.3291 L16.2458,47.5171 L15.7948,47.6501 C15.0338,47.8781 14.0348,48.0231 13.2508,48.0231 C13.0418,48.0231 12.8448,48.0131 12.6678,47.9921 C11.4708,47.8411 9.6398,47.3591 7.6058,44.9581 L7.2998,44.6001 L7.7608,44.6791 C8.2808,44.7681 8.8558,44.7751 9.3528,44.7751" id="Fill-119" fill="#063456"></path>
                        <path d="M16.134,46.2146 C14.328,45.2976 13.205,44.2256 12.798,43.0316 C12.539,42.2736 12.482,41.0656 12.428,40.0026 C12.393,39.2226 12.357,38.6436 12.283,38.2456 L12.226,37.9366 L12.515,38.0566 C14.091,38.6986 15.236,40.6466 15.515,42.1526 C15.862,44.0646 16.137,45.2876 16.375,46.0106 L16.504,46.4036 L16.134,46.2146 Z" id="Fill-121" fill="#063456"></path>
                        <path d="M8.0988,37.2976 C8.0578,35.3876 8.6888,34.4256 9.1948,33.6546 L9.5378,33.1276 L9.6138,33.5556 C9.7338,34.2506 9.9648,34.8736 10.2108,35.5326 C10.4238,36.0986 10.6618,36.7426 10.8728,37.5376 C11.2528,38.9616 11.3198,40.4696 11.3818,41.7986 L11.3848,41.8906 C11.3938,42.0536 11.4008,42.2156 11.4108,42.3706 L11.4228,42.7236 L11.1388,42.5196 C10.1038,41.7836 8.1418,39.7496 8.0988,37.2976" id="Fill-123" fill="#063456"></path>
                        <path d="M6.7844,35.8337 L6.6474,36.2437 L6.4694,35.8507 C5.8614,34.5137 5.1744,32.9987 5.8054,30.6807 C6.2604,29.0147 7.4044,28.0457 8.2384,27.3387 C8.3344,27.2597 8.4204,27.1837 8.5074,27.1097 L8.8234,26.8357 L8.7884,27.2537 C8.7114,28.1877 8.5984,29.0317 8.4894,29.8537 L8.4824,29.8927 C8.4074,30.4627 8.3274,31.0497 8.2704,31.6237 C8.1624,32.7097 7.7024,33.7197 7.2974,34.6137 C7.0994,35.0487 6.9114,35.4557 6.7844,35.8337" id="Fill-125" fill="#063456"></path>
                        <path d="M5.136,28.9216 L5.08,28.3886 C4.941,27.0676 4.969,25.3206 6.407,23.4986 C7.152,22.5536 8.268,21.9266 9.172,21.4236 C9.547,21.2136 9.899,21.0166 10.156,20.8266 L10.415,20.6396 L10.427,20.9596 C10.499,23.0226 8.871,24.8306 7.895,25.7266 L7.615,25.9866 C6.775,26.7506 5.909,27.5406 5.399,28.4516 L5.136,28.9216 Z" id="Fill-127" fill="#063456"></path>
                        <path d="M8.5461,20.3005 C8.5271,20.3085 6.7041,21.1495 5.6801,22.0295 L5.3391,22.3175 L5.4001,21.8755 C5.5881,20.4435 6.1541,18.4025 8.8561,17.1955 C9.8541,16.7495 10.5131,16.6145 11.0491,16.5065 C11.2771,16.4595 11.4781,16.4195 11.6621,16.3605 L11.9851,16.2545 L11.8751,16.5755 C11.0971,18.8685 9.4551,19.8965 8.5461,20.3005" id="Fill-129" fill="#063456"></path>
                        <path d="M2.6262,32.4978 L3.0762,32.7718 C4.3112,33.5298 5.3432,35.4938 6.1712,37.0678 C6.2942,37.3038 6.4142,37.5328 6.5302,37.7468 L6.7012,38.0688 L6.3452,37.9948 C4.5272,37.6208 3.2492,37.0768 2.4452,36.3268 C0.7752,34.7868 0.4322,32.9158 0.2452,31.2828 L0.1952,30.8738 L0.5202,31.1298 C1.0052,31.5168 1.7222,31.9488 2.6262,32.4978" id="Fill-131" fill="#063456"></path>
                        <path d="M7.1711,39.6794 C7.5931,40.0184 8.1701,40.6514 8.7371,41.2684 C9.4791,42.0794 10.2441,42.9164 10.9101,43.4304 L11.2141,43.6634 L10.8351,43.7334 C10.3381,43.8214 9.8641,43.8674 9.4311,43.8674 C7.8211,43.8674 6.8791,43.2704 6.1211,42.7104 C5.6951,42.3984 5.1841,41.7104 4.6371,40.9804 C4.1691,40.3554 3.6411,39.6464 3.1071,39.1154 L2.7901,38.7994 L3.2391,38.8254 C4.3901,38.8884 6.3231,38.9944 7.1711,39.6794" id="Fill-133" fill="#063456"></path>
                        <path d="M13.9944,48.7878 C14.0474,48.8058 14.1014,48.8238 14.1454,48.8238 C14.8094,48.8238 15.3454,48.7948 15.8274,48.7328 L15.8894,48.7258 C16.2874,48.6738 16.6654,48.6248 17.0154,48.6158 L17.0804,48.6128 C17.1694,48.6108 17.2614,48.6068 17.3524,48.6068 C19.2324,48.6068 20.8064,49.0788 22.1614,50.0458 L22.4644,50.2598 L22.1044,50.3498 C22.0004,50.3768 21.8954,50.3798 21.7874,50.3798 C21.6774,50.3808 21.5644,50.3808 21.4474,50.4138 C20.7854,50.6028 19.4424,50.9208 17.9214,50.9208 L17.8794,50.9208 C15.7434,50.9208 14.3064,49.7318 13.6414,49.0238 L13.3484,48.7128 L13.7724,48.7368 C13.8534,48.7408 13.9244,48.7648 13.9944,48.7878" id="Fill-135" fill="#063456"></path>
                        <path d="M21.5891,48.6365 C20.7551,48.3955 19.8971,48.1435 19.2801,47.7325 C18.1491,46.9745 16.9661,44.7945 16.5331,42.6655 L16.4341,42.1655 L16.8141,42.5045 C17.4961,43.1115 18.5481,43.8055 19.6321,44.3655 C21.1331,45.1485 22.4131,46.7535 23.2361,48.8885 L23.3851,49.2675 L23.0111,49.1065 C22.6011,48.9305 22.1101,48.7885 21.5891,48.6365" id="Fill-137" fill="#063456"></path>
                        <g id="Group-141" transform="translate(19.000000, 49.939500)">
                            <mask id="mask-10" fill="white">
                                <use xlink:href="#path-9"></use>
                            </mask>
                            <g id="Clip-140"></g>
                            <path d="M4.9006,0.1852 C4.2026,0.7192 3.9196,1.3912 3.4636,1.8562 C2.5256,2.8232 0.8886,2.9612 0.8886,2.9612 L2.2846,4.0002 C2.6056,4.0002 3.9396,3.7482 4.6596,2.5552 C5.1946,1.6552 5.7606,0.7652 6.5006,0.1852 L4.9006,0.1852 Z" id="Fill-139" fill="#063456" mask="url(#mask-10)"></path>
                        </g>
                    </g>
                </g>
            </g>
        </g>
    </g>
</svg>